<?xml version="1.0" encoding="utf-8"?>
<svg fill="#fff" viewBox="0 0 40 40" width="128px" height="128px" xmlns="http://www.w3.org/2000/svg">
  <circle fill="#ff7676" cx="19.954" cy="20" r="20"/>
  <path d="M 26.212 18.758 C 23.472 18.758 21.243 16.529 21.243 13.789 C 21.243 11.049 23.472 8.819 26.212 8.819 C 28.952 8.819 31.181 11.049 31.181 13.789 C 31.181 16.529 28.952 18.758 26.212 18.758 Z M 13.789 18.758 C 11.049 18.758 8.819 16.529 8.819 13.789 C 8.819 11.049 11.049 8.819 13.789 8.819 C 16.529 8.819 18.758 11.049 18.758 13.789 C 18.758 16.529 16.529 18.758 13.789 18.758 Z M 26.212 31.181 C 23.472 31.181 21.243 28.952 21.243 26.212 C 21.243 23.472 23.472 21.243 26.212 21.243 C 28.952 21.243 31.181 23.472 31.181 26.212 C 31.181 28.952 28.952 31.181 26.212 31.181 Z" style=""/>
</svg>