<?xml version="1.0" encoding="utf-8"?>
<svg fill="#fff" viewBox="0 0 40 40" width="128px" height="128px" xmlns="http://www.w3.org/2000/svg">
  <circle fill="#ff0000" cx="19.954" cy="20" r="20"/>
  <path d="M 32 8.469 L 30.594 9.094 L 23.969 11.938 L 16.344 9.063 L 15.969 8.938 L 15.594 9.094 L 8.594 12.094 L 8 12.344 L 8 31.531 L 9.406 30.906 L 16.031 28.063 L 23.656 30.938 L 24.031 31.063 L 24.406 30.906 L 31.406 27.906 L 32 27.656 L 32 8.469 Z M 17 11.438 L 23 13.688 L 23 28.563 L 17 26.313 L 17 11.438 Z M 15 11.5 L 15 26.344 L 10 28.5 L 10 13.656 L 15 11.5 Z M 30 11.5 L 30 26.344 L 25 28.5 L 25 13.656 L 30 11.5 Z"/>
</svg>