<?xml version="1.0" encoding="utf-8"?>
<svg fill="#fff" viewBox="0 0 40 40" width="128px" height="128px" xmlns="http://www.w3.org/2000/svg">
  <circle fill="#008cff" cx="19.954" cy="20" r="20"/>
  <path d="M 16.802 9.204 C 16.396 9.21 16.072 9.544 16.078 9.95 L 16.078 30.049 C 16.07 30.615 16.677 30.977 17.172 30.701 C 17.407 30.569 17.553 30.319 17.549 30.049 L 17.549 9.95 C 17.554 9.534 17.217 9.197 16.802 9.204 Z M 23.174 9.204 C 22.769 9.21 22.444 9.544 22.451 9.95 L 22.451 30.049 C 22.443 30.615 23.051 30.977 23.544 30.701 C 23.781 30.569 23.925 30.319 23.921 30.049 L 23.921 9.95 C 23.928 9.534 23.589 9.197 23.174 9.204 Z" style=""/>
</svg>