<?xml version="1.0" encoding="utf-8"?>
<svg fill="#fff" viewBox="0 0 40 40" width="128px" height="128px" xmlns="http://www.w3.org/2000/svg">
  <circle fill="#ff9100" cx="19.954" cy="20" r="20"/>
  <path d="M 22.845 9.523 L 14.528 9.523 C 14.264 9.523 14.051 9.736 14.051 10 L 14.051 30 C 14.051 30.264 14.264 30.477 14.528 30.477 L 17.863 30.477 C 18.125 30.477 18.34 30.264 18.34 30 L 18.34 23.806 L 22.687 23.806 C 27.141 23.806 30.252 20.842 30.252 16.599 C 30.252 12.367 27.275 9.523 22.845 9.523 Z M 21.894 20.47 L 18.34 20.47 L 18.34 12.846 L 21.908 12.846 C 24.501 12.846 25.963 14.187 25.963 16.686 C 25.963 19.115 24.458 20.47 21.894 20.47 Z" style=""/>
</svg>