<?xml version="1.0" encoding="utf-8"?>
<svg fill="#fff" viewBox="0 0 40 40" width="128px" height="128px" xmlns="http://www.w3.org/2000/svg">
  <circle fill="#4c00ff" cx="19.954" cy="20" r="20"/>
  <path d="M 19.914 9.024 C 13.858 9.024 8.977 13.944 9.024 20 C 9.072 26.056 14.03 30.976 20.086 30.976 C 26.143 30.976 31.024 26.056 30.976 20 C 30.928 13.944 25.97 9.024 19.914 9.024 Z M 19.921 9.979 C 25.462 9.979 29.978 14.46 30.022 20 C 30.065 25.54 25.619 30.021 20.079 30.021 C 14.539 30.021 10.022 25.54 9.979 20 C 9.935 14.46 14.382 9.979 19.921 9.979 Z M 19.91 16.182 C 19.804 16.194 19.704 16.242 19.628 16.316 L 14.894 21.088 C 14.705 21.279 14.708 21.585 14.899 21.775 C 15.091 21.965 15.396 21.965 15.586 21.775 L 19.979 17.345 L 24.443 21.775 C 24.635 21.965 24.94 21.965 25.129 21.775 C 25.318 21.585 25.315 21.279 25.124 21.088 L 20.315 16.316 C 20.207 16.212 20.058 16.162 19.91 16.182 Z" style=""/>
</svg>