<?xml version="1.0" encoding="utf-8"?>
<svg fill="#fff" viewBox="0 0 40 40" width="128px" height="128px" xmlns="http://www.w3.org/2000/svg">
  <circle fill="#ff0095" cx="19.954" cy="20" r="20"/>
  <path fill-rule="evenodd" clip-rule="evenodd" d="M 20 7.995 C 13.374 7.995 8.003 13.37 8.003 20.001 C 8.003 26.63 13.374 32.005 20 32.005 C 26.626 32.005 31.997 26.63 31.997 20.001 C 31.997 13.37 26.626 7.995 20 7.995 Z M 20 10.083 C 22.275 10.083 24.367 10.862 26.041 12.157 C 24.837 13.711 23.175 14.94 21.056 15.837 C 20.04 13.976 18.88 12.161 17.569 10.398 C 18.348 10.2 19.16 10.083 20 10.083 Z M 15.529 11.162 C 16.86 12.905 18.039 14.701 19.065 16.545 C 16.635 17.261 13.735 17.629 10.382 17.652 C 11.074 14.816 12.984 12.457 15.529 11.162 Z M 10.089 20 C 10.089 19.914 10.101 19.83 10.102 19.744 C 13.95 19.739 17.269 19.296 20.05 18.421 C 20.282 18.896 20.506 19.374 20.719 19.854 C 17.341 20.911 14.557 23.076 12.385 26.336 C 10.953 24.617 10.089 22.408 10.089 20 Z M 20 29.917 C 17.707 29.917 15.599 29.127 13.918 27.813 C 15.886 24.723 18.4 22.712 21.514 21.784 C 22.44 24.205 23.123 26.696 23.556 29.247 C 22.45 29.674 21.254 29.917 20 29.917 Z M 25.5 28.243 C 25.062 25.89 24.421 23.588 23.581 21.343 C 25.456 21.079 27.521 21.147 29.778 21.54 C 29.342 24.327 27.752 26.734 25.5 28.243 Z M 22.781 19.368 C 22.538 18.804 22.285 18.243 22.015 17.687 C 24.323 16.687 26.179 15.328 27.562 13.604 C 28.91 15.199 29.757 17.224 29.883 19.441 C 27.308 19.019 24.94 18.996 22.781 19.368 Z" fill="white"/>
</svg>