<?xml version="1.0" encoding="utf-8"?>
<svg fill="#fff" viewBox="0 0 40 40" width="128px" height="128px" xmlns="http://www.w3.org/2000/svg">
  <circle fill="#0026ff" cx="19.954" cy="20" r="20"/>
  <path d="M 10.923 13.351 C 10.171 13.351 9.593 13.929 9.593 14.74 C 9.593 15.086 9.708 15.201 9.766 15.318 C 9.927 15.61 10.668 16.82 10.668 16.82 C 10.706 16.877 10.713 16.918 10.724 16.995 C 10.783 17.225 10.61 17.398 10.379 17.398 L 6.702 17.398 L 6.702 19.134 L 11.791 19.134 C 12.543 19.134 13.176 18.555 13.176 17.745 C 13.176 17.398 13.062 17.284 13.005 17.166 L 12.041 15.664 C 12.007 15.621 11.982 15.549 11.982 15.49 C 11.982 15.26 12.157 15.086 12.387 15.086 L 14.796 15.086 L 14.796 19.134 L 17.109 19.134 L 17.109 15.086 L 19.422 15.086 L 19.422 13.351 L 10.923 13.351 Z M 20.752 13.351 L 18.888 19.134 L 20.752 19.134 L 21.156 17.977 L 22.978 17.977 L 23.381 19.134 L 25.203 19.134 L 23.277 13.351 L 20.752 13.351 Z M 25.781 13.351 L 25.781 19.134 L 27.515 19.134 L 27.515 17.335 C 27.895 17.697 28.798 18.555 29.249 18.959 C 29.306 19.018 29.481 19.134 29.711 19.134 L 33.297 19.134 L 33.297 17.398 L 30.752 17.398 C 30.621 17.398 30.528 17.36 30.451 17.306 C 30.414 17.27 30.388 17.247 30.359 17.22 C 31.066 16.904 31.563 16.198 31.563 15.375 C 31.563 14.262 30.652 13.351 29.539 13.351 L 25.781 13.351 Z M 27.515 15.086 L 29.249 15.086 C 29.41 15.086 29.539 15.215 29.539 15.375 C 29.539 15.535 29.41 15.664 29.249 15.664 L 27.515 15.664 L 27.515 15.086 Z M 22.061 15.318 L 22.643 16.82 L 21.56 16.82 L 22.061 15.318 Z M 6.933 20.868 L 8.861 26.649 L 10.23 26.649 L 11.138 24.018 L 12.048 26.649 L 13.407 26.649 L 15.337 20.868 L 13.062 20.868 L 12.501 22.546 L 11.944 20.868 L 9.941 20.868 L 9.331 22.566 L 8.764 20.868 L 6.933 20.868 Z M 16.704 20.868 L 14.841 26.649 L 16.704 26.649 L 17.109 25.492 L 18.931 25.492 L 19.333 26.649 L 21.156 26.649 L 19.229 20.868 L 16.704 20.868 Z M 21.734 20.868 L 21.734 26.649 L 23.468 26.649 L 23.468 24.849 C 23.847 25.208 24.753 26.071 25.203 26.475 C 25.262 26.533 25.435 26.649 25.666 26.649 L 31.041 26.649 C 31.793 26.649 32.429 26.128 32.429 25.26 C 32.429 24.915 32.315 24.799 32.256 24.682 L 31.291 23.237 C 31.274 23.198 31.235 23.123 31.235 23.065 C 31.235 22.835 31.406 22.602 31.581 22.602 L 33.297 22.602 L 33.297 20.868 L 30.002 20.868 C 29.249 20.868 28.615 21.504 28.615 22.312 C 28.615 22.66 28.728 22.776 28.787 22.891 C 28.95 23.113 29.828 24.337 29.828 24.337 C 29.853 24.395 29.885 24.451 29.885 24.51 C 29.885 24.74 29.713 24.915 29.539 24.915 L 26.705 24.915 C 26.606 24.915 26.529 24.89 26.463 24.856 C 26.413 24.802 26.373 24.758 26.339 24.723 C 27.03 24.4 27.515 23.701 27.515 22.891 C 27.515 21.777 26.606 20.868 25.492 20.868 L 21.734 20.868 Z M 23.468 22.602 L 25.203 22.602 C 25.363 22.602 25.492 22.731 25.492 22.891 C 25.492 23.051 25.363 23.18 25.203 23.18 L 23.468 23.18 L 23.468 22.602 Z M 18.015 22.835 L 18.597 24.337 L 17.513 24.337 L 18.015 22.835 Z" style=""/>
</svg>