<svg width="12" height="20" viewBox="0 0 12 20" fill="none" xmlns="http://www.w3.org/2000/svg">
<path fill-rule="evenodd" clip-rule="evenodd" d="M9.34601e-05 3.75004C9.34601e-05 1.67898 2.01482 -1.19805e-05 4.50002 -1.19805e-05C6.98532 -1.19805e-05 8.99996 1.67898 8.99996 3.75004V15.0001C8.99996 16.3808 7.65681 17.4999 5.99998 17.4999C4.34315 17.4999 3 16.3808 3 15.0001V5.00006H4.50002V15.0001C4.50002 15.6904 5.17153 16.2501 5.99998 16.2501C6.82843 16.2501 7.50002 15.6904 7.50002 15.0001V3.75004C7.50002 2.3693 6.15686 1.25003 4.50002 1.25003C2.84311 1.25003 1.49996 2.3693 1.49996 3.75004V15.0001C1.49996 17.0712 3.5147 18.7501 5.99998 18.7501C8.48526 18.7501 10.5 17.0712 10.5 15.0001V2.50005H11.9999V15.625C11.6302 18.0907 9.05921 20.0001 5.99998 20.0001C2.94091 20.0001 0.369845 18.0907 -8.2016e-05 15.625L9.34601e-05 3.75004Z" fill="black"/>
</svg>
