<svg width="17" height="17" viewBox="0 0 17 17" fill="none" xmlns="http://www.w3.org/2000/svg">
<path fill-rule="evenodd" clip-rule="evenodd" d="M8.5 14.5001C7.98839 14.5001 7.48962 14.4539 7.00472 14.3736L3.50005 16.5003V12.9598C1.67274 11.6769 0.49999 9.70969 0.49999 7.50012C0.49999 3.63422 4.08176 0.500155 8.5 0.500155C12.9183 0.500155 16.5 3.63422 16.5 7.50012C16.5 11.3663 12.9183 14.5001 8.5 14.5001ZM8.5 1.50033C4.63401 1.50033 1.5 4.18659 1.5 7.50012C1.5 9.5334 2.68285 11.327 4.48764 12.4123L4.4561 14.7315L6.80987 13.3166C7.35203 13.4322 7.91612 13.5002 8.5 13.5002C12.366 13.5002 15.5001 10.814 15.5001 7.50012C15.5001 4.18659 12.366 1.50033 8.5 1.50033ZM12 7.00021H5.00001C4.72387 7.00021 4.49999 6.77623 4.49999 6.50024C4.49999 6.22397 4.72387 6.00018 5.00001 6.00018H12C12.2761 6.00018 12.5 6.22397 12.5 6.50024C12.5 6.77623 12.2761 7.00021 12 7.00021ZM6.00002 9.00021H11C11.2762 9.00021 11.5001 9.22404 11.5001 9.50017C11.5001 9.77646 11.2762 10.0003 11 10.0003H6.00002C5.72382 10.0003 5.50001 9.77646 5.50001 9.50017C5.50001 9.22404 5.72382 9.00021 6.00002 9.00021Z" fill="white"/>
</svg>
