<svg width="16" height="17" viewBox="0 0 16 17" fill="none" xmlns="http://www.w3.org/2000/svg">
<path opacity="0.5" fill-rule="evenodd" clip-rule="evenodd" d="M8 14.4999C7.48839 14.4999 6.98962 14.4537 6.50472 14.3734L3.00005 16.5001V12.9596C1.17274 11.6767 -1.00136e-05 9.70951 -1.00136e-05 7.49994C-1.00136e-05 3.63404 3.58176 0.499972 8 0.499972C12.4183 0.499972 16 3.63404 16 7.49994C16 11.3661 12.4183 14.4999 8 14.4999ZM8 1.50014C4.13401 1.50014 0.999998 4.18641 0.999998 7.49994C0.999998 9.53322 2.18285 11.3268 3.98764 12.4121L3.9561 14.7313L6.30987 13.3165C6.85203 13.432 7.41612 13.5 8 13.5C11.866 13.5 15.0001 10.8138 15.0001 7.49994C15.0001 4.18641 11.866 1.50014 8 1.50014ZM11.5 7.00002H4.50001C4.22387 7.00002 3.99999 6.77605 3.99999 6.50006C3.99999 6.22379 4.22387 6 4.50001 6H11.5C11.7761 6 12 6.22379 12 6.50006C12 6.77605 11.7761 7.00002 11.5 7.00002ZM5.50002 9.00002H10.5C10.7762 9.00002 11.0001 9.22385 11.0001 9.49999C11.0001 9.77627 10.7762 10.0001 10.5 10.0001H5.50002C5.22382 10.0001 5.00001 9.77627 5.00001 9.49999C5.00001 9.22385 5.22382 9.00002 5.50002 9.00002Z" fill="white"/>
</svg>
