<svg width="14" height="14" viewBox="0 0 14 14" fill="none" xmlns="http://www.w3.org/2000/svg">
<path opacity="0.4" fill-rule="evenodd" clip-rule="evenodd" d="M9.27469 12.1334C9.05948 13.1983 8.12304 13.9999 7.00002 13.9999C5.877 13.9999 4.94056 13.1983 4.72543 12.1334H0.500032L2.35713 8.39999V4.6666C2.35713 2.08934 4.43587 -1.75238e-05 7.00002 -1.75238e-05C9.56424 -1.75238e-05 11.6429 2.08934 11.6429 4.6666V8.39999L13.5 12.1334H9.27469ZM7.00002 13.0667C7.6056 13.0667 8.11569 12.6759 8.30763 12.1334H5.6925C5.88435 12.6759 6.39444 13.0667 7.00002 13.0667ZM10.7143 8.39999V4.6666C10.7143 2.6049 9.05138 0.933346 7.00002 0.933346C4.94865 0.933346 3.28573 2.6049 3.28573 4.6666V8.39999L1.89284 11.2H12.1071L10.7143 8.39999Z" fill="black"/>
</svg>
