<svg width="15" height="14" viewBox="0 0 15 14" fill="none" xmlns="http://www.w3.org/2000/svg">
<path opacity="0.5" fill-rule="evenodd" clip-rule="evenodd" d="M14.3637 13.866C14.1867 14.04 13.9 14.04 13.723 13.866L10.0951 10.2958C9.0828 11.1041 7.79397 11.5901 6.38873 11.5901C3.13649 11.5901 0.5 8.99556 0.5 5.79508C0.5 2.59454 3.13649 3.05176e-05 6.38873 3.05176e-05C9.64097 3.05176e-05 12.2776 2.59454 12.2776 5.79508C12.2776 7.29154 11.6962 8.65109 10.7499 9.67925L14.3637 13.2354C14.5406 13.4097 14.5406 13.6919 14.3637 13.866ZM6.38873 0.891622C3.63675 0.891622 1.40588 3.08689 1.40588 5.79508C1.40588 8.50324 3.63675 10.6986 6.38873 10.6986C9.14063 10.6986 11.3715 8.50324 11.3715 5.79508C11.3715 3.08689 9.14063 0.891622 6.38873 0.891622Z" fill="black"/>
</svg>
