<svg width="15" height="15" viewBox="0 0 15 15" fill="none" xmlns="http://www.w3.org/2000/svg">
<path fill-rule="evenodd" clip-rule="evenodd" d="M14.0369 5.8501L12.9531 6.48111C13.0139 6.8124 13.0538 7.15091 13.0538 7.50029C13.0538 7.84952 13.0139 8.18803 12.9531 8.51934L14.0369 9.1503C14.4796 9.40802 14.6312 9.97879 14.3757 10.4252L13.4501 12.0419C13.1945 12.4881 12.6284 12.6412 12.1857 12.3834L11.0907 11.7461C10.5792 12.1851 9.99763 12.5441 9.35126 12.7748V13.5668C9.35126 14.0823 8.93686 14.5002 8.42558 14.5002H6.57434C6.06322 14.5002 5.64882 14.0823 5.64882 13.5668V12.7748C5.00245 12.5441 4.42091 12.1851 3.9093 11.7461L2.8144 12.3834C2.37163 12.6412 1.80554 12.4881 1.54994 12.0419L0.624336 10.4252C0.368752 9.97879 0.520448 9.40802 0.963136 9.1503L2.04694 8.51934C1.98619 8.18803 1.9463 7.84952 1.9463 7.50029C1.9463 7.15091 1.98619 6.8124 2.04694 6.48111L0.963136 5.8501C0.520448 5.59241 0.368752 5.0215 0.624336 4.57522L1.54994 2.95861C1.80554 2.51214 2.37163 2.35913 2.8144 2.61696L3.9093 3.25439C4.42091 2.81517 5.00245 2.45636 5.64882 2.22566V1.43359C5.64882 0.918171 6.06322 0.500275 6.57434 0.500275H8.42558C8.93686 0.500275 9.35126 0.918171 9.35126 1.43359V2.22566C9.99763 2.45636 10.5792 2.81517 11.0907 3.25439L12.1857 2.61696C12.6284 2.35913 13.1945 2.51214 13.4501 2.95861L14.3757 4.57522C14.6312 5.0215 14.4796 5.59241 14.0369 5.8501ZM13.3427 4.63764L12.8799 3.82932C12.752 3.60624 12.469 3.52963 12.2477 3.65856L10.9618 4.40719C10.3091 3.6648 9.42702 3.13227 8.42558 2.92728V1.90022C8.42558 1.64249 8.21838 1.43359 7.9628 1.43359H7.0372C6.78152 1.43359 6.57434 1.64249 6.57434 1.90022V2.92728C5.57298 3.13227 4.69094 3.6648 4.0383 4.40719L2.7524 3.65856C2.53101 3.52963 2.24797 3.60624 2.12013 3.82932L1.65741 4.63764C1.52957 4.86086 1.60542 5.14638 1.82672 5.27517L3.11781 6.02677C2.96402 6.49096 2.87189 6.98374 2.87189 7.50029C2.87189 8.01671 2.96402 8.50942 3.11781 8.97372L1.82672 9.72526C1.60542 9.8542 1.52957 10.1396 1.65741 10.3628L2.12013 11.171C2.24797 11.3942 2.53101 11.4707 2.7524 11.3417L4.03822 10.5933C4.69094 11.3356 5.57298 11.8682 6.57434 12.0732V13.1003C6.57434 13.3579 6.78152 13.5668 7.0372 13.5668H7.9628C8.21838 13.5668 8.42558 13.3579 8.42558 13.1003V12.0732C9.42702 11.8682 10.3091 11.3356 10.9618 10.5933L12.2477 11.3417C12.469 11.4707 12.752 11.3942 12.8799 11.171L13.3427 10.3628C13.4705 10.1396 13.3946 9.8542 13.1733 9.72526L11.8822 8.97372C12.0361 8.50942 12.1281 8.01671 12.1281 7.50029C12.1281 6.98374 12.0361 6.49096 11.8822 6.02677L13.1733 5.27517C13.3946 5.14638 13.4705 4.86086 13.3427 4.63764ZM7.5 9.83346C6.22194 9.83346 5.18595 8.78885 5.18595 7.50029C5.18595 6.21145 6.22194 5.16684 7.5 5.16684C8.77798 5.16684 9.81405 6.21145 9.81405 7.50029C9.81405 8.78885 8.77798 9.83346 7.5 9.83346ZM7.5 6.10021C6.73322 6.10021 6.11162 6.72701 6.11162 7.50029C6.11162 8.27339 6.73322 8.9001 7.5 8.9001C8.26678 8.9001 8.88838 8.27339 8.88838 7.50029C8.88838 6.72701 8.26678 6.10021 7.5 6.10021Z" fill="white"/>
</svg>
