<svg width="12" height="13" viewBox="0 0 12 13" fill="none" xmlns="http://www.w3.org/2000/svg">
<path opacity="0.5" fill-rule="evenodd" clip-rule="evenodd" d="M8.23184 4.335C7.69787 3.77275 6.95636 3.42348 6.13575 3.42348C5.31513 3.42348 4.57355 3.77275 4.04007 4.335H0.394543V2.78479C0.394543 1.98929 0.774221 1.28629 1.35518 0.858856V3.4003H1.8214V0.59454C1.92704 0.550624 2.03686 0.514485 2.14975 0.487296V3.4003H2.61589V0.425884C2.62377 0.4258 2.63155 0.425576 2.63932 0.425352C2.64906 0.425071 2.65878 0.424791 2.66862 0.424791H2.9379V3.4003H3.40412V0.424791H9.61813C10.8738 0.424791 11.8922 1.48146 11.8922 2.78479H11.8919V4.335H8.23184ZM9.25874 1.41151C9.05704 1.41151 8.89373 1.58107 8.89373 1.79007V3.09431C8.89373 3.30331 9.05704 3.47287 9.25874 3.47287H10.4878C10.6894 3.47287 10.8527 3.30331 10.8527 3.09431V1.79007C10.8527 1.58107 10.6894 1.41151 10.4878 1.41151H9.25874ZM7.0706 4.335C7.27438 4.43132 7.46195 4.55782 7.62826 4.70884C8.10224 5.14061 8.40232 5.77305 8.40232 6.47714C8.40232 7.77451 7.3856 8.82962 6.13575 8.82962C4.88613 8.82962 3.86942 7.77451 3.86942 6.47714C3.86942 5.77305 4.1695 5.14061 4.64348 4.70884C4.80953 4.55782 4.99728 4.43132 5.20089 4.335C5.4862 4.20052 5.80271 4.12476 6.13575 4.12476C6.46903 4.12476 6.78554 4.20052 7.0706 4.335ZM4.46814 6.47714C4.46814 7.43735 5.218 8.21568 6.14317 8.21568C7.06834 8.21568 7.81827 7.43735 7.81827 6.47714C7.81827 5.51713 7.06834 4.73888 6.14317 4.73888C5.218 4.73888 4.46814 5.51713 4.46814 6.47714ZM9.61813 12.4205H2.66862C1.41292 12.4205 0.394543 11.3641 0.394543 10.0605V4.70884H3.73825C3.39577 5.20793 3.19392 5.81781 3.19392 6.47714C3.19392 8.16352 4.51112 9.5309 6.13575 9.5309C7.76054 9.5309 9.07791 8.16352 9.07791 6.47714C9.07791 5.81781 8.87572 5.20793 8.53349 4.70884H11.8922V10.0605C11.8922 11.3641 10.8741 12.4205 9.61813 12.4205Z" fill="black"/>
</svg>
