<svg width="12" height="12" viewBox="0 0 12 12" fill="none" xmlns="http://www.w3.org/2000/svg">
<path opacity="0.5" fill-rule="evenodd" clip-rule="evenodd" d="M1.79959 3.6122C2.54101 3.6122 3.14208 3.00639 3.14208 2.25956C3.14208 1.51255 2.54101 0.907112 1.79959 0.907112C1.05825 0.907112 0.457187 1.51255 0.457187 2.25956C0.457187 3.00639 1.05825 3.6122 1.79959 3.6122ZM0.675475 11.9023H2.94548V4.57212H0.675475V11.9023ZM7.95728 6.41019C7.04879 6.41019 6.57406 7.02374 6.57406 8.05456V11.9023H4.39677V4.57212H6.57406V5.55941C6.57406 5.55941 7.22886 4.3483 8.78397 4.3483C10.3392 4.3483 11.4523 5.29759 11.4523 7.26101V11.9023H9.1932V8.05456C9.1932 6.99909 8.79215 6.41019 7.95728 6.41019Z" fill="black"/>
</svg>
