<svg width="13" height="10" viewBox="0 0 13 10" fill="none" xmlns="http://www.w3.org/2000/svg">
<path opacity="0.5" fill-rule="evenodd" clip-rule="evenodd" d="M0.96691 8.97588C2.05697 9.62061 3.35155 9.99688 4.74228 9.99688C9.31531 9.99688 11.8986 6.43349 11.7431 3.23743C12.2241 2.91719 12.6418 2.51698 12.9719 2.06117C12.5301 2.24194 12.0554 2.3642 11.5573 2.41895C12.0657 2.13808 12.4563 1.69267 12.6402 1.16186C12.1643 1.42231 11.6371 1.61152 11.0762 1.71327C10.6271 1.27162 9.98706 0.995726 9.27843 0.995726C7.68886 0.995726 6.52019 2.36448 6.87909 3.78608C4.83215 3.69115 3.01736 2.78649 1.80287 1.41177C1.15767 2.43306 1.46817 3.76934 2.56507 4.44535C2.16119 4.43368 1.78126 4.33125 1.44914 4.16125C1.42268 5.21397 2.24014 6.1984 3.42473 6.41822C3.07811 6.50501 2.6985 6.52504 2.31273 6.45704C2.62591 7.35969 3.53564 8.01649 4.61327 8.03484C3.57795 8.78376 2.27368 9.11817 0.96691 8.97588Z" fill="black"/>
</svg>
