<svg width="14" height="20" viewBox="0 0 14 20" fill="none" xmlns="http://www.w3.org/2000/svg">
<path opacity="0.4" fill-rule="evenodd" clip-rule="evenodd" d="M5.52282 20C5.18385 20 4.90906 19.7202 4.90906 19.375C4.90906 19.0299 5.18385 18.7501 5.52282 18.7501H6.1364V17.472C3.10671 17.1935 0.541646 14.8741 -1.75238e-05 11.8749H1.22732C1.78591 14.3791 4.12233 16.2499 6.75006 16.2499C9.37772 16.2499 11.7141 14.3791 12.2727 11.8749H13.5C12.9583 14.8741 10.3932 17.1935 7.36364 17.472V18.7501H7.97731C8.31618 18.7501 8.59098 19.0299 8.59098 19.375C8.59098 19.7202 8.31618 20 7.97731 20H5.52282ZM6.75006 15.0001C4.37768 15.0001 2.45456 13.0413 2.45456 10.6251V4.37517C2.45456 1.95889 4.37768 -5.65052e-05 6.75006 -5.65052e-05C9.12227 -5.65052e-05 11.0455 1.95889 11.0455 4.37517V10.6251C11.0455 13.0413 9.12227 15.0001 6.75006 15.0001ZM9.81822 4.37517C9.81822 2.64926 8.44452 1.24997 6.75006 1.24997C5.05551 1.24997 3.68182 2.64926 3.68182 4.37517V10.6251C3.68182 12.351 5.05551 13.75 6.75006 13.75C8.44452 13.75 9.81822 12.351 9.81822 10.6251V4.37517Z" fill="black"/>
</svg>
